HIERARCHY
ROOT Hips
{
	OFFSET 0.000000 0.000000 0.000000
	CHANNELS 6 Xposition Yposition Zposition Yrotation Xrotation Zrotation
	JOINT Spine
	{
		OFFSET 0.000000 -2.532004 -0.000000
		CHANNELS 3 Yrotation Xrotation Zrotation
		JOINT Spine1
		{
			OFFSET 0.000000 -6.909620 -0.000003
			CHANNELS 3 Yrotation Xrotation Zrotation
			JOINT Neck
			{
				OFFSET 0.000000 -7.527182 -0.000003
				CHANNELS 3 Yrotation Xrotation Zrotation
				JOINT Head
				{
					OFFSET 0.000000 -4.786107 -0.617563
					CHANNELS 3 Yrotation Xrotation Zrotation
					End Site
					{
						OFFSET 0.000000 -6.175619 -0.000003
					}
				}
			}
			JOINT LeftShoulder
			{
				OFFSET 1.243610 -6.077814 0.163240
				CHANNELS 3 Yrotation Xrotation Zrotation
				JOINT LeftArm
				{
					OFFSET 4.437543 0.000000 0.000000
					CHANNELS 3 Yrotation Xrotation Zrotation
					JOINT LeftForeArm
					{
						OFFSET 8.701317 0.000000 0.000000
						CHANNELS 3 Yrotation Xrotation Zrotation
						JOINT LeftHand
						{
							OFFSET 8.086747 0.000000 0.000000
							CHANNELS 3 Yrotation Xrotation Zrotation
							End Site
							{
								OFFSET 4.631717 0.000000 0.000000
							}
						}
					}
				}
			}
			JOINT RightShoulder
			{
				OFFSET -1.226452 -6.077814 0.163240
				CHANNELS 3 Yrotation Xrotation Zrotation
				JOINT RightArm
				{
					OFFSET -4.437543 0.000000 0.000000
					CHANNELS 3 Yrotation Xrotation Zrotation
					JOINT RightForeArm
					{
						OFFSET -8.701319 0.000000 0.000000
						CHANNELS 3 Yrotation Xrotation Zrotation
						JOINT RightHand
						{
							OFFSET -8.086747 0.000000 0.000000
							CHANNELS 3 Yrotation Xrotation Zrotation
							End Site
							{
								OFFSET -4.631717 0.000000 0.000000
							}
						}
					}
				}
			}
		}
	}
	JOINT LeftUpLeg
	{
		OFFSET 3.087811 0.000000 0.000000
		CHANNELS 3 Yrotation Xrotation Zrotation
		JOINT LeftLeg
		{
			OFFSET 0.000000 12.986259 0.000004
			CHANNELS 3 Yrotation Xrotation Zrotation
			JOINT LeftFoot
			{
				OFFSET 0.000000 13.614637 0.000004
				CHANNELS 3 Yrotation Xrotation Zrotation
				JOINT LeftToeBase
				{
					OFFSET 0.000000 2.007077 -4.631717
					CHANNELS 3 Yrotation Xrotation Zrotation
					End Site
					{
						OFFSET 0.000000 0.000000 -1.235125
					}
				}
			}
		}
	}
	JOINT RightUpLeg
	{
		OFFSET -3.087811 0.000000 0.000000
		CHANNELS 3 Yrotation Xrotation Zrotation
		JOINT RightLeg
		{
			OFFSET 0.000000 12.986259 0.000004
			CHANNELS 3 Yrotation Xrotation Zrotation
			JOINT RightFoot
			{
				OFFSET 0.000000 13.614637 0.000004
				CHANNELS 3 Yrotation Xrotation Zrotation
				JOINT RightToeBase
				{
					OFFSET 0.000000 2.007077 -4.631717
					CHANNELS 3 Yrotation Xrotation Zrotation
					End Site
					{
						OFFSET 0.000000 0.000000 -1.235125
					}
				}
			}
		}
	}
}
MOTION
Frames: 6
Frame Time: 0.041667
2.153195 -27.202173 0.250712 -1.173671 3.666732 -0.807124 1.847647 -18.301601 1.405339 -0.089736 18.376773 -4.911329 -5.272011 9.340845 -6.605152 -6.102327 6.234607 5.064289 0.029519 -8.784562 -20.891068 10.647319 -2.311623 14.178444 9.479158 -8.495360 -6.457839 0.717914 -9.070251 7.188579 9.378208 -5.306545 17.114528 -24.952501 26.723921 -9.875356 -73.866010 38.811321 44.489421 -0.558091 5.926860 34.414291 1.840469 -6.981016 2.265686 -1.892999 13.521545 -1.381334 -21.597680 -6.174151 -0.554617 -0.000001 -0.000000 0.000000 -0.775960 -5.844593 -1.143923 0.759461 12.801837 -1.718267 21.609691 -11.746226 -3.434384 -0.000001 -0.000001 -0.000000 
2.162477 -27.203793 0.255824 -1.178011 3.740224 -0.831997 1.845119 -18.272247 1.407580 -0.083549 18.292092 -4.890128 -5.288402 9.301895 -6.592269 -6.121635 6.223244 5.064262 -0.000633 -8.769754 -20.866564 10.651699 -2.437837 14.183766 9.473699 -8.444761 -6.427877 0.718193 -9.017015 7.196829 9.345517 -5.292754 17.140361 -24.907350 26.773797 -9.923803 -73.868434 38.846783 44.595101 -0.516393 5.855650 34.416183 1.826027 -7.566437 2.288690 -1.602105 14.514476 -1.266242 -21.905885 -6.489524 -0.503463 0.000000 0.000002 0.000001 -0.793062 -5.936823 -1.049030 0.736736 12.826169 -1.815642 21.623747 -11.758555 -3.418327 -0.000004 -0.000001 -0.000000 
2.173166 -27.205912 0.262330 -1.198488 3.814530 -0.857657 1.853329 -18.220090 1.408538 -0.072851 18.185454 -4.868222 -5.299131 9.241392 -6.559157 -6.133126 6.236980 5.039938 -0.019822 -8.754151 -20.850587 10.647692 -2.456205 14.207602 9.499442 -8.457283 -6.430992 0.712836 -9.030793 7.182736 9.348220 -5.301898 17.151481 -24.894995 26.810902 -9.945109 -73.857158 38.891012 44.678316 -0.494154 5.832915 34.380102 1.776932 -8.212224 2.320678 -1.367217 15.629913 -1.173525 -22.048962 -6.949744 -0.618627 -0.000000 0.000001 -0.000001 -0.811879 -6.032922 -0.949052 0.758926 12.844762 -1.911854 21.628670 -11.753610 -3.419716 -0.000002 -0.000004 0.000001 
2.185996 -27.208157 0.269436 -1.248936 3.885145 -0.884641 1.884038 -18.160966 1.381477 -0.049310 18.078889 -4.802016 -5.308307 9.188280 -6.540246 -6.145263 6.215327 5.029124 -0.051623 -8.720299 -20.851010 10.661570 -2.504050 14.230882 9.504002 -8.469715 -6.434647 0.667243 -9.041065 7.206357 9.361451 -5.277566 17.148742 -24.852439 26.697536 -9.925088 -74.433407 38.424691 44.391267 -4.027966 6.136434 32.780062 1.830829 -8.920415 2.344477 -0.986416 16.879419 -1.004965 -22.461340 -7.563325 -0.506775 -0.000001 0.000002 -0.000000 -0.830541 -6.127319 -0.840835 1.177499 12.867644 -1.925630 21.270797 -11.738825 -3.394133 0.000002 -0.000003 0.000000 
2.199564 -27.210463 0.276399 -1.310408 3.958981 -0.899132 1.903996 -18.110716 1.352902 -0.032765 17.989865 -4.752469 -5.292003 9.120409 -6.525538 -6.133522 6.196777 5.031560 -0.043920 -8.675674 -20.839536 10.657513 -2.550032 14.240716 9.506028 -8.460224 -6.458058 0.702329 -9.035999 7.237058 9.342895 -5.311207 17.148091 -24.776057 26.675770 -9.915400 -74.053328 38.990504 44.541774 -0.302336 5.894711 34.485058 1.803667 -9.647457 2.394715 -0.710488 18.219540 -0.892424 -22.657232 -8.277841 -0.445512 -0.000001 0.000000 0.000001 -0.850024 -6.228265 -0.743084 1.207410 12.905699 -2.027143 21.304204 -11.733319 -3.420505 0.000002 -0.000004 -0.000000 
2.216678 -27.213465 0.284658 -1.399457 4.029296 -0.902151 1.938023 -18.038762 1.299146 -0.011094 17.883155 -4.695247 -5.272974 9.044309 -6.505306 -6.118746 6.176253 5.026375 -0.058144 -8.634005 -20.830506 10.687048 -2.689794 14.251929 9.471405 -8.461627 -6.448367 0.677179 -9.033198 7.257377 9.368392 -5.270046 17.166641 -24.693668 26.688346 -9.916352 -73.946995 39.085102 44.732463 -0.272338 5.897228 34.499883 2.041554 -10.385846 2.374944 -0.634540 19.441802 -0.706303 -22.810071 -8.865703 -0.463862 0.000004 0.000003 -0.000001 -0.867255 -6.317192 -0.656938 1.079818 12.930584 -2.153300 21.505931 -11.714150 -3.424519 0.000003 0.000000 0.000000 
